<?xml version="1.0" encoding="utf-8"?>
<!-- Generator: Adobe Illustrator 21.0.0, SVG Export Plug-In . SVG Version: 6.00 Build 0)  -->
<svg version="1.1" id="Layer_1" xmlns="http://www.w3.org/2000/svg" xmlns:xlink="http://www.w3.org/1999/xlink" x="0px" y="0px"
	 viewBox="0 0 256 256" style="enable-background:new 0 0 256 256;" xml:space="preserve">
<style type="text/css">
	.st0{fill:#D8C2AB;}
</style>
<g>
	<path class="st0" d="M89,8.5c0,7.5-6.1,13.6-13.6,13.6c-7.5,0-13.6-6.1-13.6-13.6c0-7.5,6.1-13.6,13.6-13.6C82.9-5.1,89,1,89,8.5z
		 M129.3,3.9c-0.1,0.2-0.1,0.3-0.2,0.4c-0.9,1.5-23.2,37.5-53.6,37.5S22.7,5.9,21.8,4.3c-0.1-0.1-0.2-0.3-0.2-0.4
		c-0.2-0.3-3.7-8.6,0.3-18.4c3.6-8.7,11.7-15.6,24.2-20.7c8.4-3.4,16.3-6.2,29.1-6.7c0.1,0,0.2,0,0.3,0c12.8,0.5,20.8,3.3,29.1,6.7
		c12.5,5,20.7,12,24.2,20.7C133-4.7,129.4,3.5,129.3,3.9z M115.1,10.7l-8.4-4.5c-1.3,0.6-2.7,1-4.3,1c-5.4,0-9.8-4.4-9.8-9.8
		c0-5.4,4.4-9.8,9.8-9.8c5.1,0,9.3,3.9,9.8,9l9.7,5.2c0.3-0.4,0.5-0.8,0.6-1c0.4-1.1,2-6.3-0.5-12.5c-2.8-6.7-9.6-12.2-20.1-16.5
		c-7.7-3.1-15-5.7-26.5-6.1c-11.5,0.4-18.6,2.9-26.5,6.1C38.4-24,31.6-18.5,28.8-11.8c-2.6,6.2-1,11.4-0.5,12.5
		c0.1,0.2,0.3,0.5,0.6,1l9.7-5.2c0.5-5,4.6-9,9.8-9c5.4,0,9.8,4.4,9.8,9.8c0,5.4-4.4,9.8-9.8,9.8c-1.5,0-3-0.4-4.3-1l-8.4,4.5
		c8.4,10,22.9,23.7,39.7,23.7S106.7,20.7,115.1,10.7z"/>
</g>
<g>
	<path class="st0" d="M89,264.5c0,7.5-6.1,13.6-13.6,13.6c-7.5,0-13.6-6.1-13.6-13.6c0-7.5,6.1-13.6,13.6-13.6
		C82.9,250.9,89,257,89,264.5z M129.3,259.9c-0.1,0.2-0.1,0.3-0.2,0.4c-0.9,1.5-23.2,37.5-53.6,37.5s-52.7-36-53.6-37.5
		c-0.1-0.1-0.2-0.3-0.2-0.4c-0.2-0.3-3.7-8.6,0.3-18.4c3.6-8.7,11.7-15.6,24.2-20.7c8.4-3.4,16.3-6.2,29.1-6.7c0.1,0,0.2,0,0.3,0
		c12.8,0.5,20.8,3.3,29.1,6.7c12.5,5,20.7,12,24.2,20.7C133,251.3,129.4,259.5,129.3,259.9z M115.1,266.7l-8.4-4.5
		c-1.3,0.6-2.7,1-4.3,1c-5.4,0-9.8-4.4-9.8-9.8c0-5.4,4.4-9.8,9.8-9.8c5.1,0,9.3,3.9,9.8,9l9.7,5.2c0.3-0.4,0.5-0.8,0.6-1
		c0.4-1.1,2-6.3-0.5-12.5c-2.8-6.7-9.6-12.2-20.1-16.5c-7.7-3.1-15-5.7-26.5-6.1c-11.5,0.4-18.6,2.9-26.5,6.1
		c-10.5,4.2-17.3,9.8-20.1,16.5c-2.6,6.2-1,11.4-0.5,12.5c0.1,0.2,0.3,0.5,0.6,1l9.7-5.2c0.5-5,4.6-9,9.8-9c5.4,0,9.8,4.4,9.8,9.8
		c0,5.4-4.4,9.8-9.8,9.8c-1.5,0-3-0.4-4.3-1l-8.4,4.5c8.4,10,22.9,23.7,39.7,23.7S106.7,276.7,115.1,266.7z"/>
</g>
<g>
	<path class="st0" d="M194.1,136.5c0,7.5-6.1,13.6-13.6,13.6c-7.5,0-13.6-6.1-13.6-13.6c0-7.5,6.1-13.6,13.6-13.6
		C188.1,122.9,194.1,129,194.1,136.5z M234.4,131.9c-0.1,0.2-0.1,0.3-0.2,0.4c-0.9,1.5-23.2,37.5-53.6,37.5s-52.7-36-53.6-37.5
		c-0.1-0.1-0.2-0.3-0.2-0.4c-0.2-0.3-3.7-8.6,0.3-18.4c3.6-8.7,11.7-15.6,24.2-20.7c8.4-3.4,16.3-6.2,29.1-6.7c0.1,0,0.2,0,0.3,0
		c12.8,0.5,20.8,3.3,29.1,6.7c12.5,5,20.7,12,24.2,20.7C238.1,123.3,234.6,131.5,234.4,131.9z M220.2,138.7l-8.4-4.5
		c-1.3,0.6-2.7,1-4.3,1c-5.4,0-9.8-4.4-9.8-9.8c0-5.4,4.4-9.8,9.8-9.8c5.1,0,9.3,3.9,9.8,9l9.7,5.2c0.3-0.4,0.5-0.8,0.6-1
		c0.4-1.1,2-6.3-0.5-12.5c-2.8-6.7-9.6-12.2-20.1-16.5c-7.7-3.1-15-5.7-26.5-6.1C169,94,162,96.5,154.1,99.7
		c-10.5,4.2-17.3,9.8-20.1,16.5c-2.6,6.2-1,11.4-0.5,12.5c0.1,0.2,0.3,0.5,0.6,1l9.7-5.2c0.5-5,4.6-9,9.8-9c5.4,0,9.8,4.4,9.8,9.8
		c0,5.4-4.4,9.8-9.8,9.8c-1.5,0-3-0.4-4.3-1l-8.4,4.5c8.4,10,22.9,23.7,39.7,23.7S211.9,148.7,220.2,138.7z"/>
</g>
</svg>
